<?xml version="1.0" encoding="UTF-8" standalone="no"?>
<!DOCTYPE svg PUBLIC "-//W3C//DTD SVG 1.1//EN" "http://www.w3.org/Graphics/SVG/1.1/DTD/svg11.dtd">
<svg width="100%" height="100%" viewBox="0 0 48 48" version="1.1" xmlns="http://www.w3.org/2000/svg" xmlns:xlink="http://www.w3.org/1999/xlink" xml:space="preserve" xmlns:serif="http://www.serif.com/" style="fill-rule:evenodd;clip-rule:evenodd;stroke-linejoin:round;stroke-miterlimit:2;">
    <path d="M11,44C10.2,44 9.5,43.7 8.9,43.1C8.3,42.5 8,41.8 8,41L8,7C8,6.2 8.3,5.5 8.9,4.9C9.5,4.3 10.2,4 11,4L29.05,4L40,14.95L40,41C40,41.8 39.7,42.5 39.1,43.1C38.5,43.7 37.8,44 37,44L11,44ZM27.55,16.3L27.55,7L11,7L11,41L37,41L37,16.3L27.55,16.3ZM11,7L11,16.3L11,7L11,41L11,7Z" style="fill-rule:nonzero;"/>
    <path d="M20.231,37.681C20.231,37.681 20.231,36.001 20.231,36.001L18.007,36.001C17.437,36.001 16.936,35.792 16.509,35.365C16.081,34.937 15.872,34.437 15.872,33.867L15.872,31.643L13.693,31.643L13.693,29.008C13.693,29.008 15.872,29.008 15.872,29.008L15.872,26.63L13.693,26.63L13.693,23.995C13.693,23.995 15.872,23.995 15.872,23.995L15.872,21.771C15.872,21.201 16.081,20.701 16.509,20.273C16.936,19.846 17.437,19.636 18.007,19.636C18.007,19.636 20.231,19.636 20.231,19.636L20.231,17.566L22.865,17.566C22.865,17.566 22.865,19.636 22.865,19.636C22.865,19.636 25.244,19.636 25.244,19.636L25.244,17.566L27.878,17.566C27.878,17.566 27.878,19.636 27.878,19.636L30.102,19.636C30.672,19.636 31.173,19.846 31.6,20.273C32.028,20.701 32.237,21.201 32.237,21.771C32.237,21.771 32.237,23.995 32.237,23.995L34.307,23.995L34.307,26.63C34.307,26.63 32.237,26.63 32.237,26.63C32.237,26.63 32.237,29.008 32.237,29.008L34.307,29.008L34.307,31.643C34.307,31.643 32.237,31.643 32.237,31.643L32.237,33.867C32.237,34.437 32.028,34.937 31.6,35.365C31.173,35.792 30.672,36.001 30.102,36.001L27.878,36.001L27.878,38.181L25.244,38.181C25.244,38.181 25.244,36.001 25.244,36.001L22.865,36.001L22.865,38.181L20.231,38.181L20.231,37.681ZM29.602,33.367L29.602,22.271L18.507,22.271L18.507,33.367L29.602,33.367ZM20.694,24.595L27.279,24.595L27.279,31.179L20.694,31.179L20.694,24.595ZM23.329,28.545C23.329,28.545 24.644,28.545 24.644,28.545C24.644,28.545 24.644,27.229 24.644,27.229C24.644,27.229 23.329,27.229 23.329,27.229L23.329,28.545Z"/>
</svg>
