<?xml version="1.0" encoding="UTF-8" standalone="no"?>
<!DOCTYPE svg PUBLIC "-//W3C//DTD SVG 1.1//EN" "http://www.w3.org/Graphics/SVG/1.1/DTD/svg11.dtd">
<svg width="100%" height="100%" viewBox="0 0 48 48" version="1.1" xmlns="http://www.w3.org/2000/svg" xmlns:xlink="http://www.w3.org/1999/xlink" xml:space="preserve" xmlns:serif="http://www.serif.com/" style="fill-rule:evenodd;clip-rule:evenodd;stroke-linejoin:round;stroke-miterlimit:2;">
    <path d="M11,44C10.2,44 9.5,43.7 8.9,43.1C8.3,42.5 8,41.8 8,41L8,7C8,6.2 8.3,5.5 8.9,4.9C9.5,4.3 10.2,4 11,4L29.05,4L40,14.95L40,41C40,41.8 39.7,42.5 39.1,43.1C38.5,43.7 37.8,44 37,44L11,44ZM27.55,16.3L27.55,7L11,7L11,41L37,41L37,16.3L27.55,16.3ZM11,7L11,16.3L11,7L11,41L11,7Z" style="fill-rule:nonzero;"/>
    <path d="M18.256,26.367L15.377,26.367L15.377,23.367L18.256,23.367L18.256,23.184C18.256,22.155 18.784,21.198 19.654,20.648C20.524,20.098 21.615,20.033 22.544,20.475L24.69,21.494L24.69,19.353L27.69,19.353L27.69,22.92L32.411,25.164C33.457,25.661 34.123,26.715 34.123,27.873C34.123,29.031 33.457,30.086 32.411,30.583L27.69,32.827L27.69,36.394L24.69,36.394L24.69,34.252L22.544,35.272C21.615,35.714 20.524,35.648 19.654,35.099C18.784,34.549 18.256,33.592 18.256,32.563L18.256,32.38L15.377,32.38L15.377,29.38L18.256,29.38L18.256,26.367ZM21.256,32.563L31.123,27.873L21.256,23.184L21.256,32.563Z"/>
</svg>
