<?xml version="1.0" encoding="UTF-8"?><!DOCTYPE svg PUBLIC "-//W3C//DTD SVG 1.1//EN" "http://www.w3.org/Graphics/SVG/1.1/DTD/svg11.dtd"><svg xmlns="http://www.w3.org/2000/svg" xmlns:xlink="http://www.w3.org/1999/xlink"><defs/><symbol id="pcb_file" viewBox="0 0 48 48">
    <path d="M11,44C10.2,44 9.5,43.7 8.9,43.1C8.3,42.5 8,41.8 8,41L8,7C8,6.2 8.3,5.5 8.9,4.9C9.5,4.3 10.2,4 11,4L29.05,4L40,14.95L40,41C40,41.8 39.7,42.5 39.1,43.1C38.5,43.7 37.8,44 37,44L11,44ZM27.55,16.3L27.55,7L11,7L11,41L37,41L37,16.3L27.55,16.3ZM11,7L11,16.3L11,7L11,41L11,7Z"/>
    <path d="M20.231,37.681C20.231,37.681 20.231,36.001 20.231,36.001L18.007,36.001C17.437,36.001 16.936,35.792 16.509,35.365C16.081,34.937 15.872,34.437 15.872,33.867L15.872,31.643L13.693,31.643L13.693,29.008C13.693,29.008 15.872,29.008 15.872,29.008L15.872,26.63L13.693,26.63L13.693,23.995C13.693,23.995 15.872,23.995 15.872,23.995L15.872,21.771C15.872,21.201 16.081,20.701 16.509,20.273C16.936,19.846 17.437,19.636 18.007,19.636C18.007,19.636 20.231,19.636 20.231,19.636L20.231,17.566L22.865,17.566C22.865,17.566 22.865,19.636 22.865,19.636C22.865,19.636 25.244,19.636 25.244,19.636L25.244,17.566L27.878,17.566C27.878,17.566 27.878,19.636 27.878,19.636L30.102,19.636C30.672,19.636 31.173,19.846 31.6,20.273C32.028,20.701 32.237,21.201 32.237,21.771C32.237,21.771 32.237,23.995 32.237,23.995L34.307,23.995L34.307,26.63C34.307,26.63 32.237,26.63 32.237,26.63C32.237,26.63 32.237,29.008 32.237,29.008L34.307,29.008L34.307,31.643C34.307,31.643 32.237,31.643 32.237,31.643L32.237,33.867C32.237,34.437 32.028,34.937 31.6,35.365C31.173,35.792 30.672,36.001 30.102,36.001L27.878,36.001L27.878,38.181L25.244,38.181C25.244,38.181 25.244,36.001 25.244,36.001L22.865,36.001L22.865,38.181L20.231,38.181L20.231,37.681ZM29.602,33.367L29.602,22.271L18.507,22.271L18.507,33.367L29.602,33.367ZM20.694,24.595L27.279,24.595L27.279,31.179L20.694,31.179L20.694,24.595ZM23.329,28.545C23.329,28.545 24.644,28.545 24.644,28.545C24.644,28.545 24.644,27.229 24.644,27.229C24.644,27.229 23.329,27.229 23.329,27.229L23.329,28.545Z"/>
</symbol><symbol id="schematic_file" viewBox="0 0 48 48">
    <path d="M11,44C10.2,44 9.5,43.7 8.9,43.1C8.3,42.5 8,41.8 8,41L8,7C8,6.2 8.3,5.5 8.9,4.9C9.5,4.3 10.2,4 11,4L29.05,4L40,14.95L40,41C40,41.8 39.7,42.5 39.1,43.1C38.5,43.7 37.8,44 37,44L11,44ZM27.55,16.3L27.55,7L11,7L11,41L37,41L37,16.3L27.55,16.3ZM11,7L11,16.3L11,7L11,41L11,7Z"/>
    <path d="M18.256,26.367L15.377,26.367L15.377,23.367L18.256,23.367L18.256,23.184C18.256,22.155 18.784,21.198 19.654,20.648C20.524,20.098 21.615,20.033 22.544,20.475L24.69,21.494L24.69,19.353L27.69,19.353L27.69,22.92L32.411,25.164C33.457,25.661 34.123,26.715 34.123,27.873C34.123,29.031 33.457,30.086 32.411,30.583L27.69,32.827L27.69,36.394L24.69,36.394L24.69,34.252L22.544,35.272C21.615,35.714 20.524,35.648 19.654,35.099C18.784,34.549 18.256,33.592 18.256,32.563L18.256,32.38L15.377,32.38L15.377,29.38L18.256,29.38L18.256,26.367ZM21.256,32.563L31.123,27.873L21.256,23.184L21.256,32.563Z"/>
</symbol><symbol id="zoom_footprint" viewBox="0 0 48 48">
    <g>
        <path d="M33,38.5C34.567,38.5 35.875,37.975 36.925,36.925C37.975,35.875 38.5,34.567 38.5,33C38.5,31.433 37.975,30.125 36.925,29.075C35.875,28.025 34.567,27.5 33,27.5C31.433,27.5 30.125,28.025 29.075,29.075C28.025,30.125 27.5,31.433 27.5,33C27.5,34.567 28.025,35.875 29.075,36.925C30.125,37.975 31.433,38.5 33,38.5ZM43.2,45.3L37.842,39.95C37.147,40.417 36.392,40.792 35.575,41.075C34.758,41.358 33.9,41.5 33,41.5C30.639,41.5 28.632,40.673 26.979,39.019C25.326,37.365 24.5,35.357 24.5,32.994C24.5,30.631 25.327,28.625 26.981,26.975C28.635,25.325 30.643,24.5 33.006,24.5C35.369,24.5 37.375,25.326 39.025,26.979C40.675,28.632 41.5,30.639 41.5,33C41.5,33.9 41.358,34.758 41.075,35.575C40.792,36.392 40.417,37.147 39.95,37.842L45.3,43.2L43.2,45.3Z"/>
        <path d="M22.597,38L21,38L21,42L18,42L18,38L13,38C12.2,38 11.5,37.7 10.9,37.1C10.3,36.5 10,35.8 10,35L10,30L6,30L6,27L10,27L10,20.8L6,20.8L6,17.8L10,17.8L10,12.8C10,12 10.3,11.3 10.9,10.7C11.5,10.1 12.2,9.8 13,9.8L18,9.8L18,6L21,6L21,9.8L27.2,9.8L27.2,6L30.2,6L30.2,9.8L35.2,9.8C36,9.8 36.7,10.1 37.3,10.7C37.9,11.3 38.2,12 38.2,12.8L38.2,17.8L42,17.8L42,20.8L38.2,20.8L38.2,22.691C37.262,22.214 36.262,21.88 35.2,21.69L35.2,12.8L13,12.8L13,35L21.657,35C21.83,36.06 22.143,37.06 22.597,38ZM22.119,29.15L18.85,29.15L18.85,18.9L29.1,18.9L29.1,22.139C28.029,22.515 27.029,23.058 26.1,23.767L26.1,21.9L21.85,21.9L21.85,26.15L23.727,26.15C23.025,27.079 22.489,28.079 22.119,29.15Z"/>
    </g>
</symbol><symbol id="zoom_page" viewBox="0 0 48 48">
    <g>
        <path d="M9,41L24.75,41C25.417,41.7 26.158,42.3 26.975,42.8C27.792,43.3 28.683,43.7 29.65,44L9,44C8.2,44 7.5,43.7 6.9,43.1C6.3,42.5 6,41.8 6,41L6.02,9.006C6.02,8.206 6.32,7.506 6.92,6.906C7.52,6.306 8.22,6.006 9.02,6.006L27.07,6.006L38,14.95L38,22.65C37.533,22.417 37.05,22.217 36.55,22.05C36.05,21.883 35.533,21.75 35,21.65L35,16.3L25.55,16.3L25.57,9.006L9.02,9.006L9,16.3L9,41Z"/>
        <path d="M43.2,45.3L37.842,39.95C37.147,40.417 36.392,40.792 35.575,41.075C34.758,41.358 33.9,41.5 33,41.5C30.639,41.5 28.632,40.673 26.979,39.019C25.326,37.365 24.5,35.357 24.5,32.994C24.5,30.631 25.327,28.625 26.981,26.975C28.635,25.325 30.643,24.5 33.006,24.5C35.369,24.5 37.375,25.326 39.025,26.979C40.675,28.632 41.5,30.639 41.5,33C41.5,33.9 41.358,34.758 41.075,35.575C40.792,36.392 40.417,37.147 39.95,37.842L45.3,43.2L43.2,45.3ZM33,38.5C34.567,38.5 35.875,37.975 36.925,36.925C37.975,35.875 38.5,34.567 38.5,33C38.5,31.433 37.975,30.125 36.925,29.075C35.875,28.025 34.567,27.5 33,27.5C31.433,27.5 30.125,28.025 29.075,29.075C28.025,30.125 27.5,31.433 27.5,33C27.5,34.567 28.025,35.875 29.075,36.925C30.125,37.975 31.433,38.5 33,38.5Z"/>
    </g>
</symbol></svg>